# xmcd
#
# Track frame offsets:
# 150
# 19595
# 36321
# 54005
# 71053
# 83818
# 98087
# 114364
# 131945
# 147238
# 161585
# 177082
# 194960
#
# Disc length: 2801 seconds
#
#
# Revision: 1
# Processed by: cddbd v1.5.1PL2 Copyright (c) Steve Scherf et al.
# Submitted via: FreeRIP 2.90 
#
DISCID=b30aef0d
DTITLE=Ellis Hooks - Undeniable
DYEAR=2002
DGENRE=Blues
TTITLE0=Somethig 4 everyone
TTITLE1=Everything's falling around me
TTITLE2=I release you
TTITLE3=Blaze up the town
TTITLE4=I been there
TTITLE5=Your love is too strong
TTITLE6=Undeniable
TTITLE7=Gypsy head
TTITLE8=Hole in my heart
TTITLE9=Waiting for the rapture
TTITLE10=To get close to you
TTITLE11=Your last chance
TTITLE12=Burnt by the flame of love
EXTD=
EXTT0=
EXTT1=
EXTT2=
EXTT3=
EXTT4=
EXTT5=
EXTT6=
EXTT7=
EXTT8=
EXTT9=
EXTT10=
EXTT11=
EXTT12=
PLAYORDER=
